<svg xmlns="http://www.w3.org/2000/svg" xmlns:xlink="http://www.w3.org/1999/xlink" viewBox="0 0 359.46 64.7"><defs><style>.cls-1{fill:#a66d29;}.cls-2{fill:#402412;}.cls-3{clip-path:url(#clip-path);}.cls-4{fill:#fff;}</style><clipPath id="clip-path"><path class="cls-1" d="M10.11,31l43.81-.15s.74,12.35-4.11,18.53S35.69,59.7,35.69,59.7,25.4,58.23,22.31,55.29s-8.82-6.62-9.4-9.12S10,31.55,10,31.55Z"></path></clipPath></defs><title>brewAsset 11</title><g id="Layer_2" data-name="Layer 2"><g id="Layer_1-2" data-name="Layer 1"><path class="cls-2" d="M87.84,57.26l-.42-1.4a1.15,1.15,0,0,0,.94-.45,1.68,1.68,0,0,0,.39-1.14l.14-42.73a1.68,1.68,0,0,0-.38-1.15,1.15,1.15,0,0,0-.93-.46L88,8.54l13.15,0q10.44,0,10.4,10.48l0,6.89a6.94,6.94,0,0,1-1.3,4.2,5.93,5.93,0,0,1-3.31,2.32,5.9,5.9,0,0,1,3.43,2.42,7.39,7.39,0,0,1,1.28,4.35l0,7.66q0,10.44-10.47,10.4ZM103.18,25.5l0-6.05A3.08,3.08,0,0,0,100,16.24H97.23l0,12.8H100a2.93,2.93,0,0,0,2.3-1A3.73,3.73,0,0,0,103.18,25.5ZM100,49.64a3.1,3.1,0,0,0,3.21-3.19l0-6.82a3.68,3.68,0,0,0-.89-2.47,2.88,2.88,0,0,0-2.3-1.09H97.16l0,13.57Z"></path><path class="cls-2" d="M134.67,57.41,134.26,56c.83,0,1.11-.53.84-1.6l-3.78-15.81h-2l-.06,15.8a1.73,1.73,0,0,0,.38,1.15,1.21,1.21,0,0,0,.94.46l-.42,1.39-10.16,0L119.57,56a1.2,1.2,0,0,0,1-.45,1.73,1.73,0,0,0,.38-1.15L121,11.64a1.71,1.71,0,0,0-.37-1.15,1.2,1.2,0,0,0-.94-.45l.42-1.39,13.36,0q10.44,0,10.41,10.48l0,9q0,7-4.77,9.31l5,16.93c.36,1.07,1,1.61,1.8,1.61l-.42,1.39Zm.87-29.71,0-8.14a3.07,3.07,0,0,0-.89-2.3,3.15,3.15,0,0,0-2.3-.92h-3l0,14.9h3a2.92,2.92,0,0,0,2.3-1A3.71,3.71,0,0,0,135.54,27.7Z"></path><path class="cls-2" d="M152.07,57.47l-.41-1.39a1.2,1.2,0,0,0,.94-.45,1.75,1.75,0,0,0,.38-1.15l.15-42.73a1.75,1.75,0,0,0-.38-1.15,1.24,1.24,0,0,0-.94-.46l.42-1.39,17.12.06,1.3,8.57-1.4.41a1.18,1.18,0,0,0-.45-.94,1.68,1.68,0,0,0-1.14-.39l-6.2,0,0,12.53h5a1.75,1.75,0,0,0,1.15-.37,1.24,1.24,0,0,0,.46-.94l1.39.42,0,9.46L168,38a1.18,1.18,0,0,0-.45-.94,1.68,1.68,0,0,0-1.14-.39l-5,0,0,13.23,6.33,0a1.73,1.73,0,0,0,1.15-.38,1.21,1.21,0,0,0,.46-.94l1.39.42-1.35,8.56Z"></path><path class="cls-2" d="M202,57.64l-4.16-27.09-4.33,27.06-9,0-6.46-45.33c-.18-1.35-.72-2-1.6-2l.43-1.39,10.43,0,.42,1.39c-.88,0-1.24.81-1,2.44l3,24.43,3.77-24.27c.28-1.72,0-2.58-1-2.58l.42-1.39,10,0,.42,1.4c-.93,0-1.26.85-1,2.57L206,37.19l3.15-24.42c.19-1.62-.16-2.44-1-2.44l.42-1.39L219,9l.41,1.39c-.88,0-1.42.67-1.6,2L211,57.67Z"></path><path class="cls-2" d="M227.3,16.66a1.68,1.68,0,0,0-1.15.38,1.16,1.16,0,0,0-.46.94l-1.39-.43L225.65,9,244,9.06l1.3,8.56-1.4.42a1.18,1.18,0,0,0-.45-.94,1.68,1.68,0,0,0-1.14-.39H239l-.13,38.07a1.72,1.72,0,0,0,.38,1.15,1.17,1.17,0,0,0,.94.45l-.43,1.39-10.16,0-.41-1.4a1.14,1.14,0,0,0,.94-.44,1.72,1.72,0,0,0,.39-1.15l.13-38.07Z"></path><path class="cls-2" d="M275.92,21.69l-.08,23.66q0,6.4-3,9.77T264,58.47q-5.78,0-8.79-3.41t-3-9.78l.08-23.67q0-6.39,3.06-9.76t8.82-3.35q5.78,0,8.79,3.4T275.92,21.69ZM264,50.81q3.48,0,3.49-5.2l.08-24.22c0-3.48-1.14-5.23-3.46-5.23s-3.48,1.72-3.5,5.2l-.08,24.22C260.52,49.06,261.68,50.81,264,50.81Z"></path><path class="cls-2" d="M284.43,57.91,284,56.52a1.2,1.2,0,0,0,.94-.45,1.7,1.7,0,0,0,.39-1.15l.14-42.73a1.75,1.75,0,0,0-.38-1.15,1.22,1.22,0,0,0-.94-.46l.42-1.39,13.09.05q10.44,0,10.4,10.47l0,10.58q0,10.44-10.48,10.4h-3.82L293.7,55a1.7,1.7,0,0,0,.38,1.15,1.17,1.17,0,0,0,.94.45l-.43,1.39ZM299.7,29.84l0-9.74a3.14,3.14,0,0,0-.9-2.3,3.1,3.1,0,0,0-2.29-.91h-2.71L293.77,33h2.72a3.1,3.1,0,0,0,3.21-3.2Z"></path><path class="cls-2" d="M315.61,58l-.41-1.39a1.2,1.2,0,0,0,.94-.45,1.73,1.73,0,0,0,.38-1.15l.15-42.73a1.77,1.77,0,0,0-.38-1.15,1.2,1.2,0,0,0-.94-.45l.42-1.39,10.16,0,.42,1.4a1.16,1.16,0,0,0-1,.44,1.77,1.77,0,0,0-.38,1.15l-.14,42.73a1.63,1.63,0,0,0,.38,1.15,1.17,1.17,0,0,0,.93.46l-.42,1.39Z"></path><path class="cls-2" d="M332.17,58.07l-.41-1.39a1.34,1.34,0,0,0,1-.49,1.93,1.93,0,0,0,.53-1.11l6-42.71a1.65,1.65,0,0,0-.24-1.15,1,1,0,0,0-.87-.46l.43-1.39L352,9.42l6,45.74a2,2,0,0,0,.48,1.15,1.28,1.28,0,0,0,1,.46L359,58.16l-10.29,0-.42-1.39a1.1,1.1,0,0,0,.91-.45,1.55,1.55,0,0,0,.28-1.15l-.68-5.64-6.82,0-.64,5.64a1.66,1.66,0,0,0,.24,1.15,1,1,0,0,0,.87.45l-.43,1.39ZM345.3,22.69,342.94,42h5l-2.23-19.28Z"></path><path class="cls-1" d="M10.11,31l43.81-.15s.74,12.35-4.11,18.53S35.69,59.7,35.69,59.7,25.4,58.23,22.31,55.29s-8.82-6.62-9.4-9.12S10,31.55,10,31.55Z"></path><g class="cls-3"><path class="cls-1" d="M10,30.88v0Z"></path><rect class="cls-1" x="9.96" y="30.88" width="0.52" height="28.82"></rect><rect class="cls-1" x="10.48" y="30.88" width="0.52" height="28.82"></rect><rect class="cls-1" x="11" y="30.88" width="0.52" height="28.82"></rect><rect class="cls-1" x="11.52" y="30.88" width="0.52" height="28.82"></rect><rect class="cls-1" x="12.04" y="30.88" width="0.52" height="28.82"></rect><rect class="cls-1" x="12.55" y="30.88" width="0.52" height="28.82"></rect><rect class="cls-1" x="13.07" y="30.88" width="0.52" height="28.82"></rect><rect class="cls-1" x="13.59" y="30.88" width="0.52" height="28.82"></rect><rect class="cls-1" x="14.11" y="30.88" width="0.52" height="28.82"></rect><rect class="cls-1" x="14.62" y="30.88" width="0.52" height="28.82"></rect><rect class="cls-1" x="15.14" y="30.88" width="0.52" height="28.82"></rect><rect class="cls-1" x="15.66" y="30.88" width="0.52" height="28.82"></rect><rect class="cls-1" x="16.18" y="30.88" width="0.52" height="28.82"></rect><rect class="cls-1" x="16.69" y="30.88" width="0.52" height="28.82"></rect><rect class="cls-1" x="17.21" y="30.88" width="0.52" height="28.82"></rect><rect class="cls-1" x="17.73" y="30.88" width="0.52" height="28.82"></rect><rect class="cls-1" x="18.25" y="30.88" width="0.52" height="28.82"></rect><rect class="cls-1" x="18.76" y="30.88" width="0.52" height="28.82"></rect><rect class="cls-1" x="19.28" y="30.88" width="0.52" height="28.82"></rect><rect class="cls-1" x="19.8" y="30.88" width="0.52" height="28.82"></rect><rect class="cls-1" x="20.32" y="30.88" width="0.52" height="28.82"></rect><rect class="cls-1" x="20.84" y="30.88" width="0.52" height="28.82"></rect><rect class="cls-1" x="21.35" y="30.88" width="0.52" height="28.82"></rect><rect class="cls-1" x="21.87" y="30.88" width="0.52" height="28.82"></rect><rect class="cls-1" x="22.39" y="30.88" width="0.52" height="28.82"></rect><rect class="cls-1" x="22.91" y="30.88" width="0.52" height="28.82"></rect><rect class="cls-1" x="23.42" y="30.88" width="0.52" height="28.82"></rect><rect class="cls-1" x="23.94" y="30.88" width="0.52" height="28.82"></rect><rect class="cls-1" x="24.46" y="30.88" width="0.52" height="28.82"></rect><rect class="cls-1" x="24.98" y="30.88" width="0.52" height="28.82"></rect><rect class="cls-1" x="25.49" y="30.88" width="0.52" height="28.82"></rect><rect class="cls-1" x="26.01" y="30.88" width="0.52" height="28.82"></rect><rect class="cls-1" x="26.53" y="30.88" width="0.52" height="28.82"></rect><rect class="cls-1" x="27.05" y="30.88" width="0.52" height="28.82"></rect><rect class="cls-1" x="27.56" y="30.88" width="0.52" height="28.82"></rect><rect class="cls-1" x="28.08" y="30.88" width="0.52" height="28.82"></rect><rect class="cls-1" x="28.6" y="30.88" width="0.52" height="28.82"></rect><rect class="cls-1" x="29.12" y="30.88" width="0.52" height="28.82"></rect><rect class="cls-1" x="29.64" y="30.88" width="0.52" height="28.82"></rect><rect class="cls-1" x="30.15" y="30.88" width="0.52" height="28.82"></rect><rect class="cls-1" x="30.67" y="30.88" width="0.52" height="28.82"></rect><rect class="cls-1" x="31.19" y="30.88" width="0.52" height="28.82"></rect><rect class="cls-1" x="31.71" y="30.88" width="0.52" height="28.82"></rect><rect class="cls-1" x="32.22" y="30.88" width="0.52" height="28.82"></rect><rect class="cls-1" x="32.74" y="30.88" width="0.52" height="28.82"></rect><rect class="cls-1" x="33.26" y="30.88" width="0.52" height="28.82"></rect><rect class="cls-1" x="33.78" y="30.88" width="0.52" height="28.82"></rect><rect class="cls-1" x="34.29" y="30.88" width="0.52" height="28.82"></rect><rect class="cls-1" x="34.81" y="30.88" width="0.52" height="28.82"></rect><rect class="cls-1" x="35.33" y="30.88" width="0.52" height="28.82"></rect><rect class="cls-1" x="35.85" y="30.88" width="0.52" height="28.82"></rect><rect class="cls-1" x="36.36" y="30.88" width="0.52" height="28.82"></rect><rect class="cls-1" x="36.88" y="30.88" width="0.52" height="28.82"></rect><rect class="cls-1" x="37.4" y="30.88" width="0.52" height="28.82"></rect><rect class="cls-1" x="37.92" y="30.88" width="0.52" height="28.82"></rect><rect class="cls-1" x="38.44" y="30.88" width="0.52" height="28.82"></rect><rect class="cls-1" x="38.95" y="30.88" width="0.52" height="28.82"></rect><rect class="cls-1" x="39.47" y="30.88" width="0.52" height="28.82"></rect><rect class="cls-1" x="39.99" y="30.88" width="0.52" height="28.82"></rect><rect class="cls-1" x="40.51" y="30.88" width="0.52" height="28.82"></rect><rect class="cls-1" x="41.02" y="30.88" width="0.52" height="28.82"></rect><rect class="cls-1" x="41.54" y="30.88" width="0.52" height="28.82"></rect><rect class="cls-1" x="42.06" y="30.88" width="0.52" height="28.82"></rect><rect class="cls-1" x="42.58" y="30.88" width="0.52" height="28.82"></rect><rect class="cls-1" x="43.09" y="30.88" width="0.52" height="28.82"></rect><rect class="cls-1" x="43.61" y="30.88" width="0.52" height="28.82"></rect><rect class="cls-1" x="44.13" y="30.88" width="0.52" height="28.82"></rect><rect class="cls-1" x="44.65" y="30.88" width="0.52" height="28.82"></rect><rect class="cls-1" x="45.16" y="30.88" width="0.52" height="28.82"></rect><rect class="cls-1" x="45.68" y="30.88" width="0.52" height="28.82"></rect><rect class="cls-1" x="46.2" y="30.88" width="0.52" height="28.82"></rect><rect class="cls-1" x="46.72" y="30.88" width="0.52" height="28.82"></rect><rect class="cls-1" x="47.23" y="30.88" width="0.52" height="28.82"></rect><rect class="cls-1" x="47.75" y="30.88" width="0.52" height="28.82"></rect><rect class="cls-1" x="48.27" y="30.88" width="0.52" height="28.82"></rect><rect class="cls-1" x="48.79" y="30.88" width="0.52" height="28.82"></rect><rect class="cls-1" x="49.31" y="30.88" width="0.52" height="28.82"></rect><rect class="cls-1" x="49.82" y="30.88" width="0.52" height="28.82"></rect><rect class="cls-1" x="50.34" y="30.88" width="0.52" height="28.82"></rect><rect class="cls-1" x="50.86" y="30.88" width="0.52" height="28.82"></rect><rect class="cls-1" x="51.38" y="30.88" width="0.52" height="28.82"></rect><rect class="cls-1" x="51.89" y="30.88" width="0.52" height="28.82"></rect><rect class="cls-1" x="52.41" y="30.88" width="0.52" height="28.82"></rect><rect class="cls-1" x="52.93" y="30.88" width="0.52" height="28.82"></rect><rect class="cls-1" x="53.45" y="30.88" width="0.52" height="28.82"></rect><rect class="cls-1" x="53.96" y="30.88" width="0.7" height="28.82"></rect></g><path class="cls-2" d="M61.19,57H2a2,2,0,1,0,0,4H4.24a.13.13,0,0,0,0,.06c0,1.8,1.94,3.29,4.49,3.61a1.68,1.68,0,0,0,.5.07H53.4a1.82,1.82,0,0,0,.46-.06c2.6-.29,4.59-1.8,4.59-3.62,0,0,0,0,0-.06h2.75a2,2,0,1,0,0-4Z"></path><path class="cls-2" d="M32.61,59.46c-9.85,0-17.22-4.89-21.31-14.13A39.15,39.15,0,0,1,8.15,31.58a1.83,1.83,0,0,1,.52-1.31A1.8,1.8,0,0,1,10,29.73h0l44.1.07a1.82,1.82,0,0,1,1.82,1.77c0,.55.29,13.65-7.59,21.75C44.34,57.4,39.06,59.46,32.61,59.46ZM11.92,33.37A35.94,35.94,0,0,0,14.66,44c3.52,7.88,9.56,11.87,18,11.87,5.43,0,9.84-1.69,13.09-5C51,45.39,52,37,52.21,33.43Z"></path><path class="cls-2" d="M56.54,48.81a9.55,9.55,0,0,1-1-.05l-4.29,0,0-3.27,4.55,0s3.34.35,5.26-1.36a4.86,4.86,0,0,0,1.44-3.86,4.63,4.63,0,0,0-1.41-3.65c-2.19-2-6.24-1.63-6.28-1.63l-.32-3.25c.22,0,5.51-.52,8.79,2.44a7.86,7.86,0,0,1,2.49,6.09,8,8,0,0,1-2.55,6.31A10.23,10.23,0,0,1,56.54,48.81Z"></path><path class="cls-2" d="M24.37,32.86a1.82,1.82,0,0,1-1.81-1.79c0-.34,0-8.27,12.92-14.21C42,12.65,42,10.06,42,8.17A4.48,4.48,0,0,0,38.27,3.7C36.49,3.34,33.84,4.5,33,5a1.82,1.82,0,0,1-1.74,0C30,4.34,27.57,3.42,26.12,3.7c-1.77.35-3.5,2.25-3.39,5.21.08,2,3.6,5.13,6.07,6.69a1.82,1.82,0,0,1-1.94,3.07c-.78-.48-7.58-4.91-7.76-9.62-.19-5,3-8.27,6.32-8.91,2.42-.47,5.24.58,6.66,1.22C33.52.7,36.41-.39,39,.14a8.08,8.08,0,0,1,6.67,8c0,3.14-.64,6.91-8.34,11.82l-.22.13C26.4,25,26.19,30.78,26.19,31a1.8,1.8,0,0,1-1.78,1.84Z"></path><ellipse class="cls-2" cx="32.35" cy="6.77" rx="2.68" ry="4.19"></ellipse><path class="cls-2" d="M32.24,33.33a1.84,1.84,0,0,1-.47-.07,1.64,1.64,0,0,1-1.1-2c.08-.26,1.92-6.25,7.89-8.56l1.31-.5c2.59-1,4.15-1.56,6.11-3.44a10.24,10.24,0,0,0,2.41-6.55,1.64,1.64,0,1,1,3.27-.08,13.46,13.46,0,0,1-3.41,9A18.27,18.27,0,0,1,41,25.23l-1.28.49c-4.45,1.72-5.92,6.4-5.93,6.44A1.65,1.65,0,0,1,32.24,33.33Z"></path><path class="cls-2" d="M21.21,25a2,2,0,0,1-.42-.05c-7.78-2.1-9-9.44-8.55-13a1.63,1.63,0,0,1,3.24.39c0,.33-.78,7.61,6.16,9.48a1.62,1.62,0,0,1,1.15,2A1.64,1.64,0,0,1,21.21,25Z"></path><circle class="cls-2" cx="13.97" cy="4.51" r="1.95"></circle><circle class="cls-2" cx="50.14" cy="4.51" r="1.95"></circle><path class="cls-4" d="M19.52,40.4c1,2.76,2.31,5.08,1.62,5.86s-3.7-.83-5.1-4.55-.18-7,.82-6.79S18.45,37.66,19.52,40.4Z"></path></g></g></svg>